<?xml version="1.0" encoding="UTF-8"?>
<!DOCTYPE svg PUBLIC "-//W3C//DTD SVG 1.1//EN" "http://www.w3.org/Graphics/SVG/1.1/DTD/svg11.dtd">
<!-- Creator: CorelDRAW 2017 -->
<svg xmlns="http://www.w3.org/2000/svg" xml:space="preserve" width="450px" height="500px" version="1.1" shape-rendering="geometricPrecision" text-rendering="geometricPrecision" image-rendering="optimizeQuality" fill-rule="evenodd" clip-rule="evenodd"
viewBox="0 0 450 500"
 xmlns:xlink="http://www.w3.org/1999/xlink">
 <g id="Слой_x0020_1">
  <metadata id="CorelCorpID_0Corel-Layer"/>
  <g id="_3086978599344">
   <path fill="#F47F34" fill-rule="nonzero" d="M180.45 332.49c-18.85,0.45 -32.04,13.35 -38.23,20.99 0,0 -0.26,0.33 -0.5,0.63 -0.38,-0.14 -0.76,-0.27 -0.76,-0.27 -12.91,-4.66 -27.52,-5.54 -42.22,-2.54 -14.12,2.87 -34.45,10.18 -49.17,22.04 -25.92,20.88 -39.55,46.05 -38.38,70.87 0.67,14.36 7.28,26.77 19.12,35.89 19.44,14.99 51.52,11.56 64.41,9.4 14.42,-2.44 240.4,-42.89 270.05,-48.55 26.98,-5.16 52.66,-14.31 57.81,-46.12 0.3,-1.87 0.47,-3.79 0.48,-5.71l0 -0.3c0,-7.8 -2.43,-15.09 -6.67,-19.99 -7.92,-9.16 -21.21,-10.25 -30.51,-10.27 -12.9,-0.04 -151.51,2.62 -167.28,2.93 0,0 -0.52,0.01 -1.01,0.02 -0.06,-0.49 -0.13,-1 -0.13,-1 -0.83,-6.3 -3.39,-12.04 -7.41,-16.61 -4.77,-5.42 -13.78,-11.8 -29.6,-11.41l0 0z"/>
   <path fill="#363E87" fill-rule="nonzero" d="M180.36 329.09c-19.49,0.47 -33.26,13.34 -39.79,21.07 -13.17,-4.42 -27.87,-5.18 -42.52,-2.2 -14.52,2.96 -35.44,10.49 -50.62,22.73 -26.78,21.58 -40.86,47.75 -39.64,73.68 0.72,15.38 7.79,28.67 20.44,38.42 20.5,15.81 53.73,12.3 67.06,10.06 14.15,-2.38 239.89,-42.79 270.12,-48.56 28.2,-5.39 55.06,-15.04 60.53,-48.91 0.33,-2.09 0.5,-4.18 0.52,-6.23 0.07,-8.73 -2.66,-16.94 -7.49,-22.54 -8.83,-10.22 -23.11,-11.43 -33.08,-11.45 -7.97,-0.02 -65.19,0.98 -165.47,2.89 -1.18,-6.25 -3.87,-11.92 -7.81,-16.39 -5.25,-5.97 -15.11,-12.99 -32.25,-12.57zm-37.24 25.12c6.06,-7.49 18.97,-20.13 37.35,-20.57 15.39,-0.38 24.11,5.79 28.71,11.02 3.87,4.4 6.34,9.93 7.14,16l0.26 2.02 2.05 -0.04c15.75,-0.3 154.29,-2.97 167.25,-2.93 9.08,0.02 22.02,1.07 29.63,9.87 4.07,4.7 6.4,11.71 6.4,19.24l0 0.3c-0.02,1.85 -0.17,3.71 -0.47,5.53 -5.03,31.12 -30.31,40.09 -56.89,45.17 -29.64,5.66 -255.6,46.11 -270.03,48.54 -12.74,2.15 -44.43,5.54 -63.51,-9.17 -11.55,-8.91 -18.01,-21.02 -18.67,-35.03 -1.15,-24.45 12.33,-49.28 37.95,-69.92 14.56,-11.74 34.69,-18.96 48.68,-21.81 14.5,-2.96 28.88,-2.1 41.6,2.49l1.53 0.54 1.02 -1.25 0 0z"/>
   <path fill="#FEFEFE" fill-rule="nonzero" d="M408.44 393.13l-1.19 -2.71 -0.43 -0.93c-0.03,-0.07 -0.11,-0.14 -0.21,-0.17 -0.11,-0.03 -0.34,-0.04 -0.62,0.18l-4.39 3.33 0.14 -1.81c0.29,-3.71 -0.41,-10.34 -3.56,-13.45 -2.88,-2.86 -7.02,-4.17 -11.96,-3.8 -5.16,0.38 -10.7,2.33 -14.3,5.28 -5.34,4.41 -8.71,12.13 -8.71,12.13 0,0 0.3,-2.45 0.3,-4.65 0,-3.64 -0.99,-6.51 -2.94,-8.55 -2.36,-2.49 -5.97,-3.56 -10.71,-3.19 -1.67,0.13 -5.8,1.53 -8.35,4.08 0.25,-0.8 1.03,-3.36 1.03,-3.36l-17.79 0.89 -5.09 3.84 -3.27 14.55c0,0 -0.21,-0.54 -0.33,-0.81 -1.73,-3.9 -5.22,-7.26 -10.78,-6.77 -3.13,0.28 -6.05,1.19 -8.65,2.69l-1.67 0.97 3.41 -13.89 -21.78 0.88 -6.66 5.78 1.54 -5.69 -24.06 0.24 -1.1 3.97 -0.08 -0.09 -0.9 -1.23c-0.89,-1.24 -2.54,-2.34 -3.7,-2.81 -5.15,-2.05 -14.69,-0.27 -19.27,3.59 -10.51,8.89 -11.01,23.76 -11.63,32.61 -0.47,6.68 -1.08,9.34 -1.64,9.89 0.2,-4.78 -2.41,-8.82 -5.02,-10.6 -3.46,-2.35 -8.44,-2.42 -12.69,-0.99 -9.13,3.07 -10.89,8.27 -10.89,8.27l13.6 -40.06c0,0 -5.39,0.2 -7.68,0.29 7.46,-1.97 11.92,-7.03 12.3,-14.08 0,0 0.02,-0.35 0.02,-0.36 0,-0.11 0,-0.21 0,-0.31 0,-3.56 -1.61,-7.12 -4.36,-9.6 -2.09,-1.87 -6.88,-3.88 -11.64,-3.91 -2.59,-0.01 -5.9,0.49 -9.09,1.39 -4.16,1.18 -12.29,5.74 -13.27,14.57 -0.49,4.35 0.2,7.24 2.35,9.95 0.9,1.12 2.88,2.43 5.39,2.96 -3.08,0.1 -5.5,0.18 -5.68,0.19 -0.4,0.36 -3.92,3.63 -4.21,3.89 -0.49,1.6 -3.82,12.39 -6.13,18.41 -2.06,5.38 -4.43,10.45 -7.06,15.06 -7.69,13.47 -17.52,22.12 -28.44,25.01 -7.83,2.1 -13.44,1.95 -18.17,-0.43 -4.8,-2.41 -8.23,-9.69 -8.16,-17.31 0.08,-8.03 3.61,-18.63 5.98,-23.28 8.26,-16.23 14.88,-20.37 20.77,-22.5 4.91,-1.78 8.3,-1.32 9.04,-0.84 -1.22,0.71 -2.19,1.26 -2.19,1.26 -8.43,4.87 -14.06,12.82 -14.71,20.76 -0.41,5.01 1.07,9.51 4.14,12.68 3.04,3.14 7.54,4.6 12.68,4.11 11.61,-1.11 22.48,-12.38 23.23,-24.12 0.43,-6.65 -1.25,-12.08 -4.98,-16.14 -6.29,-6.85 -13.66,-9.25 -27.21,-8.86 -12.41,0.36 -26.37,5.15 -38.32,13.14 -10.21,6.83 -23.77,19.31 -30.33,39.97 -3.88,12.24 -0.72,27.84 7.2,35.52 10.61,10.27 24.01,12.9 44.81,8.81 14.06,-2.76 27.78,-10.73 40.75,-23.67l1.14 -1.13 0.26 1.59c0.44,2.77 1.43,5.1 2.94,6.95 2.46,2.99 7.49,6.27 17.56,4.91 6.75,-0.9 14.42,-4.39 23.46,-10.65l0.45 -0.31 0.46 0.29c3.96,2.56 9.32,4.91 19.04,2.87l0.18 -0.03c3.64,-0.76 13.33,-2.79 21.01,-13.72 1.03,-1.45 2.02,-3.27 3.14,-5.7l1.33 -2.91 0.23 3.2c0.32,4.43 0.97,7.6 3.18,9.77 2.75,2.68 6.86,3.76 11.57,3.03 9.14,-1.41 15.46,-9.04 19.42,-14.64l0.78 -1.11 0.61 1.2c3.24,6.23 11.93,9.24 22.12,7.66 9.67,-1.49 14.52,-5.97 18.66,-10.98l0.83 -1.06 -1.9 7.66 25.08 -3.92 4.54 -18.8c0,0 -0.12,5.1 0.45,7.81 0.57,2.7 1.7,5.03 2.78,6.09 2.46,2.42 6.54,2.84 9.19,2.43 4.04,-0.62 10.05,-2.43 15.57,-10.77l0.86 -1.28 0.59 1.42c1.76,4.23 8.27,7 14.21,6.05 8.08,-1.3 14.19,-5.91 17.68,-13.3l0.16 -0.33 0.34 -0.11c4.18,-1.29 8.18,-5.62 9.32,-10.13 0.11,-0.36 0.34,-1.45 0.08,-2.22l0 0zm-138.65 -8.95c0.05,-0.18 0.09,-0.36 0.14,-0.52 -0.01,0.04 -0.05,0.21 -0.11,0.49l-0.03 0.03 0 0z"/>
   <path fill="#363E87" fill-rule="nonzero" d="M180.31 378.66c7.84,-0.32 15.55,-3.84 16.19,-12.02 0.43,-5.45 -3.78,-11.11 -12.41,-11.6 -4.78,-0.27 -9.14,0.85 -12.3,3.24 -2.41,1.82 -4.03,4.28 -4.79,7.38 -0.87,3.5 -0.46,6.47 1.24,8.75 2.24,2.97 6.58,4.49 12.07,4.25z"/>
   <path fill="#363E87" fill-rule="nonzero" d="M405.75 391.99c-1.14,2.48 -3.49,5.07 -5.56,5.42l-0.91 0.23c0,0 0.81,-5.52 0.85,-7.18 0.16,-7.57 -1.62,-15.49 -13.45,-14.83 -7.27,0.41 -17.86,6.73 -19.47,20.33l-0.01 0.08 -0.03 0.08c-0.01,0.04 -0.03,0.14 -0.04,0.27 -1.8,4.72 -5.1,11.36 -7.46,11.64 -0.49,0.05 -0.95,-0.1 -1.3,-0.46 -0.45,-0.42 -0.68,-1.1 -0.66,-1.91 0.04,-1.46 0.62,-3.72 1.35,-6.58 0.97,-3.83 1.77,-7.42 2.15,-11.38 0.87,-9.25 -4.82,-11.1 -10.72,-10.66 -4.33,0.32 -8.38,2.92 -9.5,4.2l-2.1 2.4c0,0 0.98,-4.58 1.25,-5.82 -1.68,0.06 -12.15,0.41 -13.24,0.46l-4.64 18.83c-1.63,2.17 -3.88,3.94 -5.76,4.42l-0.9 0.22 -0.09 -0.96c-0.08,-0.96 -0.22,-1.89 -0.45,-2.86 -0.28,-2.11 -2.14,-9.34 -9.2,-8.74 -18.18,1.54 -17.65,23.98 -6.78,20.82l1.24 -0.39 -0.22 1.35c-1.45,8.92 -5.27,13.65 -10.5,14.35 -0.79,0.1 -1.52,-0.14 -2.11,-0.69 -0.93,-0.89 -1.44,-2.5 -1.38,-4.42 0.11,-4.4 8.83,-40.91 8.83,-40.91 0,0 -15.72,0.58 -16.88,0.63 -0.81,3.36 -4.3,17.88 -4.31,17.9l-0.52 1.91c-0.67,2.46 -1.12,4.08 -1.43,5.79l-0.02 0.09 -0.03 0.07c-0.03,0.11 -0.08,0.2 -0.11,0.3 -2.65,6.91 -7.29,14.35 -10.84,14.76 -0.68,0.08 -1.31,-0.12 -1.78,-0.58 -0.51,-0.49 -0.78,-1.21 -0.77,-2.05l0 -0.06 0.31 -2.98c0,0 8.98,-32.71 9.58,-34.87 -2.02,0.08 -19.24,0.38 -19.24,0.38l-1.68 5.94c-0.46,-4.85 -10.69,-11.37 -18.4,-4.43 -8.14,7.34 -10.38,18.31 -11.6,29.15 0,0 -0.12,0.42 -0.12,0.43 -1.74,13.05 -4.76,21.98 -13.85,23.16 -2.08,0.28 -3.94,0.16 -5.27,-0.65 3.12,-2.41 5.04,-4.32 6.54,-6.82 3.36,-5.6 1.86,-10.49 -1.66,-12.8 -7.05,-4.62 -14.74,1.02 -16.14,8.17 -0.86,4.39 0.71,8.08 2.04,10.26 -2.44,1.39 -4.39,2.9 -7.74,3.36 -2.01,0.27 -3.96,-0.75 -4.63,-1.64 -2.01,-2.71 0.71,-11.46 1.09,-12.57 0,0 12.46,-37.03 13.2,-39.32 -2.18,0.09 -25.14,0.87 -26.28,0.92 -0.78,2.3 -3.69,11.37 -6.69,19.72 -5.88,16.34 -22.93,38.66 -40.49,43.19 -9.36,2.43 -16.65,2 -21.3,-0.85 -6.29,-3.88 -9.92,-13.19 -7.5,-26.21 1.72,-9.2 3.26,-12.63 5.72,-17.87 14.69,-31.22 38.35,-24.17 36.9,-21.82 -2.39,0.8 -4.5,2.04 -4.5,2.04 -3.77,2 -9.86,7.9 -10.09,15.23 -0.15,4.71 1.12,8.52 3.68,11.02 2.5,2.46 6.18,3.59 10.37,3.21 9.34,-0.85 16.92,-7.87 17.25,-18.28 0.18,-5.65 -1.38,-10.25 -4.66,-13.64 -5.26,-5.47 -11.38,-8.21 -25.1,-7.82 -21.09,0.58 -53.25,15.69 -62.49,49.15 -3.12,11.29 0.98,24.92 7.75,31.11 9.39,8.59 21.08,11.76 41.51,7.92 18.23,-3.43 33.17,-15.82 44.16,-28.85 -0.02,0.2 -0.01,0.41 -0.06,0.61 -2.59,9.55 0.94,19.72 16.92,17.69 6.66,-0.84 18.39,-4.67 26.57,-11.05 3.76,3.28 10.24,5.2 17.65,4.11 3.03,-0.45 10.8,-2.53 17.62,-12.28 5.38,-7.71 8.1,-22.75 9.6,-30.9 0.69,-3.78 1.14,-6.27 1.73,-7.34 0.51,-0.94 0.95,-2.15 2.38,-2.75 2.87,-1.19 4.34,1.59 3.78,3.66 -0.55,2.07 -3.5,12.44 -3.52,12.46l-0.56 1.63c-1.74,5.06 -3.72,10.79 -3.88,16.86 -0.13,4.45 1.04,7.95 3.38,10.13 2.15,2.01 5.25,2.8 8.92,2.24 10.04,-1.47 17.19,-11.63 20.56,-17.55l0.48 -0.85 0.67 -1.18 0.4 2.24c1.61,8.86 8.6,12.41 19.1,10.87 13.62,-2.01 21.81,-9.07 24.31,-21.32l0.11 -0.53 0.48 -0.18c1.26,-0.45 2.51,-1.11 3.74,-1.95l1.03 -0.69 -4.84 19.66c1.93,-0.28 14.71,-2.43 15.73,-2.58 0.28,-1.19 5.85,-25.02 5.85,-25.02 0.97,-4.13 3.63,-12 6.7,-12.2 0.59,-0.03 1.16,0.2 1.61,0.67 0.67,0.69 1.03,1.83 0.99,3.13 -0.06,2.61 -0.88,5.53 -1.84,8.9 -1.14,4.06 -2.33,9.04 -2.79,13.95 -0.77,8.28 6.22,8.22 8.29,7.92 4.94,-0.73 11.53,-3.28 17.11,-15.56l0.28 1.33c1.45,6.84 7.5,10.84 13.89,9.87 7.85,-1.21 13.24,-5.48 16.21,-12.53l0.21 -0.47 0.48 -0.06c3.09,-0.35 7.35,-3.92 8.43,-8.07 -0.23,-0.3 -0.32,-1.14 -0.89,-1.88l0 0zm-208.44 26.18c2.81,0.12 3.94,1.85 2.36,5.29 -0.77,1.67 -2.96,4.25 -5.85,6.4 -3.55,-5.58 -0.09,-11.86 3.49,-11.69l0 0zm104.5 -14.91c-0.52,0.75 -1.65,1.24 -3.45,1.55 -1.87,0.31 -2.31,-0.7 -2.4,-1.14 -0.38,-1.66 1.4,-4.29 2.95,-5 0.9,-0.42 1.91,-0.22 2.21,0.11 1.32,1.5 0.69,4.48 0.69,4.48zm86.63 -0.79c-1.12,3.4 -2.66,7.08 -5.72,7.47 -1.05,0.14 -1.91,-0.09 -2.54,-0.67 -1.02,-0.93 -1.46,-1.78 -1.39,-4.87 0.16,-7.27 3.97,-25.41 9.13,-25.65 0.71,-0.04 1.36,0.25 1.88,0.81 1.07,1.18 1.53,3.48 1.23,6.18l-0.04 0.34c0,0 -5.39,0.19 -5.97,8.23 -0.34,4.82 3.69,7.12 3.69,7.12l-0.27 1.04 0 0zm1.45 -5.35c-1.76,-1.09 -1.67,-4.28 -0.72,-5.45 0.48,-0.6 1.19,-0.71 1.6,-0.46 -0.11,1.95 -0.23,3.67 -0.88,5.91z"/>
   <polygon fill="#F47F34" fill-rule="nonzero" points="172.27,36.58 168.3,4.88 196.71,1.33 200.69,33.02 191.9,34.12 188.89,10.14 178.05,11.5 181.06,35.48 "/>
   <path fill="#F47F34" fill-rule="nonzero" d="M217.38 17.29l4.21 0.2c1.57,0.07 2.83,-0.25 3.76,-0.97 0.94,-0.72 1.44,-1.74 1.5,-3.06 0.07,-1.37 -0.33,-2.44 -1.2,-3.22 -0.86,-0.77 -2.09,-1.2 -3.7,-1.28l-4.16 -0.2 -0.41 8.53zm-9.61 15.61l1.52 -31.9 13.69 0.65c4.06,0.2 7.24,1.35 9.54,3.44 2.3,2.11 3.36,4.92 3.19,8.45 -0.12,2.45 -0.82,4.52 -2.1,6.21 -1.27,1.7 -2.95,2.92 -5.04,3.68 -2.08,0.76 -4.46,1.07 -7.13,0.94l-4.39 -0.21 -0.44 9.17 -8.84 -0.43 0 0z"/>
   <path fill="#F47F34" fill-rule="nonzero" d="M239.9 35.04l6.69 -31.23 25.15 5.36 -1.58 7.37 -14.21 -3.04c-1.31,-0.27 -2.59,0.56 -2.87,1.86 -0.28,1.31 0.55,2.59 1.86,2.87l12.64 2.7 -1.47 6.84 -15 -3.21 -1.06 4.95 16.8 3.59 -1.58 7.36 -25.37 -5.42 0 0z"/>
   <polygon fill="#F47F34" fill-rule="nonzero" points="271.02,41.92 283.3,12.43 291.95,16.02 294.24,30.36 306.03,21.87 314.7,25.47 302.42,54.96 294.25,51.57 301.3,34.64 288.95,43.05 288.79,42.98 286.04,28.4 279.03,45.25 "/>
   <polygon fill="#F47F34" fill-rule="nonzero" points="308.63,59.1 325.04,31.69 332.64,36.23 316.23,63.64 "/>
   <path fill="#F47F34" fill-rule="nonzero" d="M342.17 56.73c-0.73,0.92 -0.99,1.93 -0.77,3.01 0.21,1.09 0.9,2.09 2.06,3.01l4.59 3.64 4.95 -6.24 -4.56 -3.6c-1.18,-0.93 -2.32,-1.39 -3.41,-1.37 -1.11,0.02 -2.06,0.54 -2.86,1.55l0 0zm-20.47 9.8l12.85 -3.94c-1.06,-1.97 -1.52,-3.96 -1.38,-5.98 0.13,-2.02 0.95,-3.98 2.46,-5.88 1.12,-1.41 2.4,-2.47 3.82,-3.15 1.43,-0.68 2.89,-0.99 4.37,-0.92 1.49,0.07 2.99,0.42 4.51,1.04 1.51,0.63 2.99,1.52 4.45,2.67l11.84 9.37 -19.86 25.04 -6.94 -5.49 4.45 -5.61c0.83,-1.05 0.65,-2.57 -0.39,-3.4l-0.15 -0.11c-0.63,-0.5 -1.46,-0.65 -2.23,-0.41l-9.79 3.12 -8.01 -6.35z"/>
   <path fill="#F47F34" fill-rule="nonzero" d="M372.17 89.92c1.84,-1.39 3.83,-2.37 5.98,-2.92 2.14,-0.56 4.25,-0.71 6.31,-0.43 2.08,0.28 4.08,0.99 6.04,2.14 1.95,1.14 3.65,2.66 5.09,4.55 3.43,4.54 4.37,9.44 2.79,14.72l-7.95 -2.12c0.8,-3.08 0.37,-5.7 -1.27,-7.87 -1.35,-1.76 -3.1,-2.71 -5.3,-2.85 -2.19,-0.14 -4.25,0.53 -6.2,2 -1.95,1.48 -3.15,3.29 -3.6,5.43 -0.46,2.15 -0.01,4.1 1.33,5.86 0.94,1.24 2,2.1 3.19,2.57 1.18,0.48 2.61,0.75 4.3,0.81l0.22 8.19c-1.82,0.02 -3.5,-0.14 -5.03,-0.51 -1.52,-0.36 -3.09,-1.08 -4.72,-2.15 -1.63,-1.07 -3.12,-2.51 -4.48,-4.3 -1.83,-2.4 -2.93,-5.03 -3.32,-7.88 -0.38,-2.85 0,-5.63 1.14,-8.33 1.15,-2.7 2.98,-5.01 5.48,-6.91l0 0z"/>
   <path fill="#F47F34" fill-rule="nonzero" d="M379.27 125.19l6.36 -2.56c0.14,0.54 0.4,1.17 0.77,1.91 0.19,0.37 0.39,0.67 0.6,0.9 0.2,0.23 0.53,0.43 0.97,0.62 0.44,0.18 0.98,0.26 1.59,0.23 0.62,-0.03 1.44,-0.17 2.46,-0.4 1.02,-0.24 2.21,-0.61 3.56,-1.12 1.34,-0.51 2.99,-1.2 4.92,-2.07 1.93,-0.87 4.1,-1.92 6.51,-3.15l3.95 -2 11.17 21.94 -28.51 14.47 -4.01 -7.88 21.57 -10.95 -3.37 -6.61 -1.09 0.55c-2.45,1.25 -4.7,2.29 -6.75,3.13 -2.05,0.85 -3.86,1.5 -5.44,1.95 -1.58,0.45 -3.02,0.73 -4.31,0.84 -1.3,0.11 -2.41,0.08 -3.35,-0.09 -0.93,-0.16 -1.78,-0.47 -2.54,-0.93 -0.76,-0.46 -1.39,-0.98 -1.89,-1.58 -0.51,-0.6 -0.97,-1.32 -1.4,-2.15 -0.46,-0.91 -0.85,-1.86 -1.17,-2.84 -0.31,-0.98 -0.51,-1.72 -0.6,-2.21l0 0z"/>
   <path fill="#F47F34" fill-rule="nonzero" d="M413.88 163.56c-2.27,0.66 -4.01,1.97 -5.21,3.92 -1.19,1.96 -1.46,4.07 -0.8,6.34 0.67,2.29 2.02,3.93 4.05,4.92 2.03,0.99 4.21,1.15 6.52,0.47 2.27,-0.65 4.01,-1.96 5.21,-3.92 1.19,-1.96 1.46,-4.08 0.79,-6.38 -0.66,-2.27 -2.01,-3.89 -4.04,-4.88 -2.03,-0.99 -4.2,-1.14 -6.52,-0.47zm-2.53 -8.71c2.17,-0.63 4.36,-0.8 6.57,-0.53 2.21,0.28 4.24,0.94 6.1,1.98 1.85,1.04 3.5,2.46 4.94,4.27 1.44,1.81 2.49,3.87 3.17,6.2 0.68,2.32 0.9,4.63 0.66,6.91 -0.25,2.28 -0.87,4.35 -1.87,6.21 -1,1.85 -2.36,3.48 -4.09,4.88 -1.72,1.41 -3.68,2.43 -5.88,3.06 -2.17,0.63 -4.36,0.81 -6.57,0.54 -2.22,-0.27 -4.25,-0.93 -6.1,-1.97 -1.85,-1.04 -3.5,-2.46 -4.93,-4.26 -1.44,-1.8 -2.5,-3.86 -3.17,-6.18 -0.9,-3.09 -1.01,-6.11 -0.32,-9.05 0.68,-2.93 2.03,-5.46 4.05,-7.59 2.02,-2.12 4.5,-3.61 7.44,-4.47z"/>
   <polygon fill="#F47F34" fill-rule="nonzero" points="406.5,198.22 438.34,195.25 439.17,204.05 427.18,205.17 428.23,216.48 440.23,215.37 441.05,224.17 409.21,227.14 408.38,218.34 420.49,217.21 419.43,205.9 407.32,207.03 "/>
   <path fill="#F47F34" fill-rule="nonzero" d="M54.07 178.84c0,-29.8 17.4,-54.04 38.78,-54.04 4.55,0 29.36,-1.04 29.36,26.43 0,4.23 -0.63,8.01 -1.88,11.26 -0.83,2.17 -0.22,4.63 1.43,6.27 5.44,5.43 10.88,10.87 16.32,16.3 3.84,-22.99 9.6,-48.99 23.71,-70.91 0.54,-0.85 1.14,-1.65 1.7,-2.47 -13.21,-25.95 -38.96,-42.42 -70.64,-42.42 -50.64,0 -91.85,49.15 -91.85,109.58 0,52.49 26.02,97.78 63.36,118.3 -4.58,-8.47 -7.24,-17.9 -7.24,-27.59 0,-18.19 3.79,-32.63 9.18,-44 -7.64,-12.79 -12.23,-29.04 -12.23,-46.71z"/>
   <path fill="#F47F34" fill-rule="nonzero" d="M322.82 95.75c15.34,21.06 24.87,50.4 24.87,82.86 0,3.64 -0.14,7.24 -0.37,10.79 -2.59,39.19 -19.07,72.73 -42.49,90.84l-14.66 42.71 50.26 0c0,0 40,-48.04 40,-121.03 0,-56.12 -27.49,-88.59 -57.61,-106.17l0 0z"/>
   <path fill="#F47F34" fill-rule="nonzero" d="M291.62 288.41c-2.65,1.27 -5.36,2.35 -8.12,3.24 -5.99,1.93 -12.22,2.98 -18.63,2.98 -2.58,0 -5.12,-0.18 -7.64,-0.5l0 28.82 25.94 0 12.59 -36.69c-1.36,0.77 -2.74,1.48 -4.14,2.15l0 0z"/>
   <path fill="#F47F34" fill-rule="nonzero" d="M243.46 268.92c-21.65,-16.95 -36.3,-49.35 -36.3,-86.55 0,-35.98 13.7,-67.48 34.2,-84.85 1.9,-1.61 4.51,0.87 3.05,2.88 -14.94,20.59 -24.25,49.45 -24.25,81.43 0,33.4 10.15,63.41 26.27,84.12 1.53,1.97 -1.01,4.5 -2.97,2.97l0 0zm-70.18 -111.65c-0.08,0 -0.17,-0.02 -0.25,-0.03 -3.72,-0.14 -6.7,-3.17 -6.7,-6.92 0,-3.6 2.76,-6.53 6.28,-6.88 0.22,-0.02 0.44,-0.07 0.67,-0.07 3.85,0 6.96,3.12 6.96,6.95 0,3.84 -3.11,6.95 -6.96,6.95l0 0zm86.39 131.98c9.42,0 18.47,-2.27 26.86,-6.42 0.96,-0.48 1.9,-0.99 2.85,-1.52 29.13,-16.2 49.71,-55.49 49.71,-101.41 0,-25.92 -6.56,-49.71 -17.5,-68.45 -6.28,-10.76 -14.01,-19.85 -22.79,-26.7 -5.66,-4.43 -11.75,-7.92 -18.17,-10.33 -6.68,-2.52 -13.7,-3.88 -20.96,-3.88 -5.94,0 -11.72,0.92 -17.29,2.62 -4.6,1.41 -9.05,3.34 -13.31,5.79 -1.53,0.88 -3.03,1.84 -4.52,2.84 -12.01,8.17 -22.3,20.41 -29.94,35.4 5.79,-12.96 13.35,-24.19 22.2,-33.05 -23.25,7.93 -38.26,22.42 -48.29,39.62 -12.76,21.87 -17.51,48.09 -21.06,70.67 -4.56,29.08 -7.12,52.14 -22.19,52.14 -2.13,0 -4.14,-0.29 -6.05,-0.78 -10.74,-2.74 -17.65,-12.5 -17.65,-21.53 0,-6.78 1.41,-12.48 3.15,-16.94 1.07,-2.75 -1.12,-5.29 -3.62,-5.29 -0.74,0 -1.5,0.22 -2.21,0.72 -1.39,0.97 -2.83,2.07 -4.3,3.29 -7.41,6.12 -15.62,15.57 -20.96,29.65 -3.48,9.2 -5.75,20.35 -5.75,33.86 0,13.64 6.35,26.29 15.84,35.65 8.64,8.52 19.89,14.32 31.37,15.61 1.61,0.18 3.23,0.28 4.84,0.28 20.2,0 33.55,-9.81 42.21,-22.01 1.45,-2.05 2.79,-4.17 3.99,-6.32 8.24,-14.78 10.71,-31.1 10.71,-37.59 4.21,4.22 6.95,10.25 8.69,16.99 0.45,1.7 0.82,3.44 1.14,5.21 0.48,2.67 0.84,5.4 1.09,8.14 1.7,18.64 -1.39,37.44 -1.39,37.44l59.05 0 0 -31.56c-3.57,-1.21 -7.04,-2.73 -10.41,-4.56 -10.12,-5.48 -19.27,-13.66 -27.01,-23.91 7.83,9.24 16.98,16.43 27.01,20.94 3.38,1.51 6.85,2.72 10.41,3.61 0.47,0.11 0.93,0.24 1.4,0.34 1.32,0.3 2.64,0.55 3.98,0.75 0.35,0.05 0.7,0.12 1.05,0.16 1.77,0.24 3.57,0.38 5.38,0.45 0.81,0.04 1.62,0.08 2.44,0.08l0 0z"/>
  </g>
 </g>
</svg>
