<?xml version="1.0" encoding="UTF-8"?>
<!DOCTYPE svg PUBLIC "-//W3C//DTD SVG 1.1//EN" "http://www.w3.org/Graphics/SVG/1.1/DTD/svg11.dtd">
<!-- Creator: CorelDRAW 2017 -->
<svg xmlns="http://www.w3.org/2000/svg" xml:space="preserve" width="40px" height="40px" version="1.1" shape-rendering="geometricPrecision" text-rendering="geometricPrecision" image-rendering="optimizeQuality" fill-rule="evenodd" clip-rule="evenodd"
viewBox="0 0 40 40"
 xmlns:xlink="http://www.w3.org/1999/xlink">
 <g id="Слой_x0020_1">
  <metadata id="CorelCorpID_0Corel-Layer"/>
  <g id="_2308439215536">
   <g>
    <g>
     <g>
      <path fill="white" d="M14.192 29.495l1.611 0c0.445,0 0.806,0.361 0.806,0.806l0 5.638 19.33 0 0 -32.218 -19.33 0 0 5.638c0,0.445 -0.361,0.806 -0.806,0.806l-1.611 0c-0.445,0 -0.806,-0.36 -0.806,-0.806l0 -5.638c0.001,-1.779 1.443,-3.221 3.223,-3.221l19.33 0c1.78,0 3.222,1.442 3.222,3.221l0 32.218c0,1.78 -1.442,3.222 -3.222,3.222l-19.33 0c-1.78,0 -3.222,-1.442 -3.222,-3.222l0 -5.638c0,-0.445 0.36,-0.806 0.805,-0.806z"/>
      <path fill="white" d="M0.761 19.237l9.665 -8.861c0.236,-0.214 0.578,-0.273 0.869,-0.142 0.292,0.128 0.481,0.417 0.481,0.737l0 1.61c0,0.228 -0.097,0.446 -0.267,0.599l-5.599 5.039 22.78 0c0.445,0 0.806,0.361 0.806,0.806l0 1.611c0,0.445 -0.361,0.806 -0.806,0.806l-22.78 -0.001 5.6 5.04c0.169,0.153 0.266,0.37 0.266,0.598l0 1.611c0,0.319 -0.189,0.609 -0.481,0.737 -0.104,0.047 -0.215,0.068 -0.324,0.068 -0.198,0 -0.393,-0.073 -0.545,-0.211l-9.665 -8.86c-0.167,-0.153 -0.261,-0.368 -0.261,-0.594 0,-0.225 0.094,-0.441 0.261,-0.593z"/>
     </g>
    </g>
   </g>
   <g>
   </g>
   <g>
   </g>
   <g>
   </g>
   <g>
   </g>
   <g>
   </g>
   <g>
   </g>
   <g>
   </g>
   <g>
   </g>
   <g>
   </g>
   <g>
   </g>
   <g>
   </g>
   <g>
   </g>
   <g>
   </g>
   <g>
   </g>
   <g>
   </g>
  </g>
 </g>
</svg>
