<?xml version="1.0" encoding="UTF-8"?>
<!DOCTYPE svg PUBLIC "-//W3C//DTD SVG 1.1//EN" "http://www.w3.org/Graphics/SVG/1.1/DTD/svg11.dtd">
<!-- Creator: CorelDRAW 2017 -->
<svg xmlns="http://www.w3.org/2000/svg" xml:space="preserve" width="106px" height="125px" version="1.1" shape-rendering="geometricPrecision" text-rendering="geometricPrecision" image-rendering="optimizeQuality" fill-rule="evenodd" clip-rule="evenodd"
viewBox="0 0 106 125"
 xmlns:xlink="http://www.w3.org/1999/xlink">
 <g id="Слой_x0020_1">
  <metadata id="CorelCorpID_0Corel-Layer"/>
  <g id="_2852598569376">
   <g>
    <g>
     <path fill="#FEFEFE" d="M52.59 66.86c0.12,0 0.25,0 0.4,0 0.05,0 0.11,0 0.16,0 0.07,0 0.17,0 0.25,0 7.47,-0.13 13.5,-2.75 17.96,-7.77 9.81,-11.06 8.18,-30.01 8,-31.82 -0.63,-13.58 -7.05,-20.08 -12.35,-23.11 -3.95,-2.27 -8.56,-3.49 -13.71,-3.6l-0.18 0c-0.02,0 -0.08,0 -0.1,0l-0.15 0c-2.83,0 -8.38,0.46 -13.71,3.49 -5.35,3.04 -11.87,9.53 -12.51,23.21 -0.18,1.81 -1.81,20.77 8,31.83 4.43,5.02 10.47,7.64 17.94,7.77zm-19.14 -38.96c0,-0.07 0.03,-0.15 0.03,-0.2 0.84,-18.27 13.81,-20.23 19.36,-20.23l0.1 0c0.05,0 0.13,0 0.21,0 6.88,0.15 18.57,2.95 19.36,20.23 0,0.08 0,0.15 0.03,0.2 0.02,0.18 1.8,17.51 -6.3,26.63 -3.21,3.61 -7.49,5.4 -13.12,5.45 -0.05,0 -0.08,0 -0.13,0l0 0c-0.05,0 -0.07,0 -0.12,0 -5.61,-0.05 -9.92,-1.84 -13.1,-5.45 -8.08,-9.07 -6.34,-26.48 -6.32,-26.63z"/>
     <path fill="#FEFEFE" d="M105.35 98.3c0,-0.03 0,-0.05 0,-0.08 0,-0.2 -0.02,-0.41 -0.02,-0.64 -0.16,-5.04 -0.49,-16.84 -11.55,-20.61 -0.07,-0.02 -0.17,-0.05 -0.25,-0.07 -11.49,-2.93 -21.05,-9.56 -21.15,-9.63 -1.55,-1.1 -3.69,-0.72 -4.79,0.84 -1.09,1.55 -0.71,3.69 0.84,4.79 0.44,0.3 10.58,7.36 23.27,10.62 5.93,2.12 6.59,8.46 6.77,14.27 0,0.23 0,0.43 0.03,0.64 0.02,2.29 -0.13,5.83 -0.54,7.87 -4.12,2.34 -20.3,10.44 -44.92,10.44 -24.5,0 -40.78,-8.12 -44.94,-10.47 -0.41,-2.03 -0.58,-5.58 -0.53,-7.87 0,-0.2 0.02,-0.41 0.02,-0.64 0.18,-5.8 0.84,-12.15 6.78,-14.26 12.69,-3.26 22.83,-10.35 23.26,-10.63 1.56,-1.09 1.94,-3.23 0.84,-4.79 -1.09,-1.55 -3.23,-1.94 -4.79,-0.84 -0.1,0.08 -9.6,6.7 -21.14,9.63 -0.11,0.03 -0.18,0.05 -0.26,0.08 -11.06,3.79 -11.39,15.59 -11.54,20.61 0,0.23 0,0.43 -0.03,0.64 0,0.02 0,0.05 0,0.07 -0.02,1.33 -0.05,8.13 1.3,11.55 0.26,0.66 0.72,1.22 1.33,1.6 0.76,0.51 19.08,12.18 49.73,12.18 30.65,0 48.97,-11.69 49.74,-12.18 0.58,-0.38 1.07,-0.94 1.32,-1.6 1.27,-3.39 1.25,-10.2 1.22,-11.52z"/>
    </g>
   </g>
   <g>
   </g>
   <g>
   </g>
   <g>
   </g>
   <g>
   </g>
   <g>
   </g>
   <g>
   </g>
   <g>
   </g>
   <g>
   </g>
   <g>
   </g>
   <g>
   </g>
   <g>
   </g>
   <g>
   </g>
   <g>
   </g>
   <g>
   </g>
   <g>
   </g>
  </g>
 </g>
</svg>
