<?xml version="1.0" encoding="UTF-8"?>
<!DOCTYPE svg PUBLIC "-//W3C//DTD SVG 1.1//EN" "http://www.w3.org/Graphics/SVG/1.1/DTD/svg11.dtd">
<!-- Creator: CorelDRAW 2017 -->
<svg xmlns="http://www.w3.org/2000/svg" xml:space="preserve" width="240px" height="320px" version="1.1" shape-rendering="geometricPrecision" text-rendering="geometricPrecision" image-rendering="optimizeQuality" fill-rule="evenodd" clip-rule="evenodd"
viewBox="0 0 240 320"
 xmlns:xlink="http://www.w3.org/1999/xlink">
 <g id="Слой_x0020_1">
  <metadata id="CorelCorpID_0Corel-Layer"/>
  <g id="_3087106468480">
   <g>
    <path fill="#FF8522" d="M222 282.68c18.54,-49.98 18.54,-195.39 0,-245.36l5.44 -28.8c0.34,-1.82 -0.14,-3.69 -1.32,-5.11 -1.18,-1.43 -2.93,-2.25 -4.78,-2.25l-205.77 0c-1.85,0 -3.6,0.82 -4.78,2.25 -1.18,1.42 -1.66,3.29 -1.32,5.11l5.44 28.8c-18.54,49.97 -18.54,195.38 0,245.35l-5.44 28.81c-0.35,1.81 0.14,3.69 1.31,5.11 1.18,1.42 2.93,2.25 4.78,2.25l205.77 0c0.01,0 0.02,0 0.03,0 3.43,0 6.2,-2.78 6.2,-6.21 0,-0.58 -0.07,-1.13 -0.22,-1.66l-5.34 -28.29zm-8.15 -269.11l-3.42 18.11 -183.96 0 -3.41 -18.11 190.79 0zm-188.18 30.52l185.56 0c16.36,48.48 16.36,183.33 0,231.81l-185.56 0c-16.35,-48.48 -16.35,-183.33 0,-231.81zm-2.62 262.33l3.42 -18.1 183.96 0 3.42 18.1 -190.8 0z"/>
    <path fill="#FF8522" d="M95.4 145.57c11.58,0 20.66,-12.62 20.66,-28.73 0,-16.1 -9.08,-28.72 -20.66,-28.72 -11.58,0 -20.65,12.62 -20.65,28.72 0,16.11 9.07,28.73 20.65,28.73zm0 -45.03c3.81,0 8.25,7.12 8.25,16.3 0,9.19 -4.44,16.32 -8.25,16.32 -3.81,0 -8.24,-7.13 -8.24,-16.32 0,-9.18 4.43,-16.3 8.24,-16.3z"/>
    <path fill="#FF8522" d="M49.62 162.41c4.49,9.71 12.58,15.99 20.6,15.99l0 0c2.1,0 4.09,-0.43 5.96,-1.29 9.12,-4.22 11.76,-17.29 6.01,-29.74 -4.49,-9.72 -12.57,-16.01 -20.6,-16.01 -2.09,0 -4.09,0.44 -5.94,1.29 -9.12,4.22 -11.77,17.29 -6.03,29.76zm11.23 -18.49c0.21,-0.1 0.45,-0.14 0.74,-0.14 2.19,0 6.53,2.73 9.33,8.79 3.14,6.8 1.81,12.46 0.06,13.27 -0.22,0.1 -0.46,0.15 -0.75,0.15l-0.01 0c-2.19,0 -6.53,-2.73 -9.33,-8.78 -3.13,-6.81 -1.8,-12.47 -0.04,-13.29z"/>
    <path fill="#FF8522" d="M141.49 145.57c11.58,0 20.65,-12.62 20.65,-28.73 0,-16.1 -9.07,-28.72 -20.65,-28.72 -11.58,0 -20.66,12.62 -20.66,28.72 0.01,16.11 9.08,28.73 20.66,28.73zm0 -45.03c3.81,0 8.24,7.12 8.24,16.3 0,9.19 -4.43,16.32 -8.24,16.32 -3.81,0 -8.24,-7.13 -8.24,-16.32 0,-9.18 4.43,-16.3 8.24,-16.3z"/>
    <path fill="#FF8522" d="M154.71 147.36c-5.76,12.45 -3.12,25.52 6.03,29.76 1.85,0.85 3.85,1.28 5.94,1.28l0 0c8.03,0 16.12,-6.28 20.61,-16 5.74,-12.46 3.1,-25.53 -6.03,-29.75 -1.85,-0.86 -3.86,-1.29 -5.95,-1.29 -8.02,0 -16.1,6.28 -20.6,16zm11.27 5.22c2.8,-6.07 7.14,-8.81 9.33,-8.81 0.28,0 0.53,0.05 0.74,0.15 1.77,0.82 3.1,6.48 -0.03,13.28 -3.17,6.87 -8.36,9.44 -10.08,8.65 -1.77,-0.83 -3.1,-6.49 0.04,-13.27z"/>
    <path fill="#FF8522" d="M72.44 191.7c-6.12,9.68 -9.86,15.98 -9.86,23.22 0,13.21 9.59,21.74 24.45,21.74l0.33 0c5.45,0 9.35,-0.31 17.55,-4.57 0.05,-0.02 0.11,-0.06 0.16,-0.08 0.06,-0.04 6.68,-3.69 12.99,-3.29 0.26,0.01 0.52,0.01 0.79,0 6.31,-0.4 12.93,3.25 12.97,3.28 0.06,0.03 0.12,0.06 0.18,0.09 8.19,4.26 12.1,4.57 17.55,4.57l0.16 0 0.17 0c14.85,0 24.45,-8.53 24.45,-21.74 0,-7.24 -3.75,-13.55 -9.87,-23.22 -0.86,-1.43 -12.23,-20.07 -22.57,-29.39 -8.68,-7.81 -21.95,-8.03 -23.44,-8.03 -1.48,0 -14.75,0.22 -23.44,8.04 -10.33,9.31 -21.7,27.95 -22.57,29.38zm30.88 -20.16c4.38,-3.94 12.42,-4.84 15.13,-4.85 2.72,0.01 10.75,0.91 15.14,4.85 9.14,8.24 20.17,26.45 20.28,26.63 0.02,0.04 0.05,0.08 0.07,0.12 5.63,8.89 7.98,13.17 7.98,16.63 0,6.19 -4.05,9.33 -12.04,9.33l-0.33 0c-3.8,0 -5.72,0 -11.75,-3.13 -1.29,-0.71 -9.16,-4.84 -18.01,-4.84 -0.45,0 -0.89,0.01 -1.33,0.03 -0.45,-0.02 -0.89,-0.03 -1.34,-0.03 -8.85,0 -16.73,4.13 -18.01,4.84 -6.03,3.13 -7.95,3.13 -11.75,3.13l-0.33 0c-7.99,0 -12.04,-3.14 -12.04,-9.33 0,-3.46 2.35,-7.74 7.98,-16.63 0.02,-0.04 0.05,-0.08 0.07,-0.12 0.11,-0.18 11.14,-18.39 20.28,-26.63z"/>
   </g>
   <g>
   </g>
   <g>
   </g>
   <g>
   </g>
   <g>
   </g>
   <g>
   </g>
   <g>
   </g>
   <g>
   </g>
   <g>
   </g>
   <g>
   </g>
   <g>
   </g>
   <g>
   </g>
   <g>
   </g>
   <g>
   </g>
   <g>
   </g>
   <g>
   </g>
  </g>
 </g>
</svg>
