<?xml version="1.0" encoding="UTF-8"?>
<!DOCTYPE svg PUBLIC "-//W3C//DTD SVG 1.1//EN" "http://www.w3.org/Graphics/SVG/1.1/DTD/svg11.dtd">
<!-- Creator: CorelDRAW 2017 -->
<svg xmlns="http://www.w3.org/2000/svg" xml:space="preserve" width="165px" height="123px" version="1.1" shape-rendering="geometricPrecision" text-rendering="geometricPrecision" image-rendering="optimizeQuality" fill-rule="evenodd" clip-rule="evenodd"
viewBox="0 0 165 123"
 xmlns:xlink="http://www.w3.org/1999/xlink">
 <g id="Слой_x0020_1">
  <metadata id="CorelCorpID_0Corel-Layer"/>
  <g id="_1420372035280">
   <g>
    <g>
     <path fill="#FEFEFE" d="M136.3 53.26c-1.02,-1.02 -2.68,-1.02 -3.69,0l-60.25 60.24c-2.8,2.8 -6.51,4.34 -10.46,4.34 -3.95,0 -7.67,-1.54 -10.46,-4.34l-45.14 -45.13 20.92 -20.92 7.4 7.39c1.01,1.02 2.67,1.02 3.69,0 1.02,-1.02 1.02,-2.67 0,-3.69l-9.24 -9.24c-1.02,-1.02 -2.67,-1.02 -3.69,0l-24.61 24.61c-1.02,1.02 -1.02,2.67 0,3.69l46.98 46.99c3.78,3.78 8.8,5.86 14.15,5.86 5.34,0 10.37,-2.08 14.15,-5.86l60.25 -60.25c1.02,-1.02 1.02,-2.67 0,-3.69z"/>
    </g>
   </g>
   <g>
    <g>
     <path fill="#FEFEFE" d="M164.24 25.32l-24.61 -24.61c-1.02,-1.02 -2.68,-1.02 -3.69,0l-72.36 72.35c-0.45,0.45 -1.05,0.7 -1.68,0.7 -0.64,0 -1.24,-0.25 -1.69,-0.7l-14.52 -14.52c-1.02,-1.02 -2.67,-1.02 -3.69,0 -1.02,1.01 -1.02,2.67 0,3.68l14.52 14.53c1.44,1.44 3.35,2.23 5.38,2.23 2.03,0 3.94,-0.79 5.37,-2.23l70.51 -70.51 20.92 20.92 -18.71 18.71c-1.02,1.02 -1.02,2.68 0,3.7 1.02,1.01 2.67,1.01 3.69,0l20.55 -20.56c0.49,-0.49 0.77,-1.15 0.77,-1.85 0,-0.69 -0.28,-1.35 -0.76,-1.84z"/>
    </g>
   </g>
   <g>
   </g>
   <g>
   </g>
   <g>
   </g>
   <g>
   </g>
   <g>
   </g>
   <g>
   </g>
   <g>
   </g>
   <g>
   </g>
   <g>
   </g>
   <g>
   </g>
   <g>
   </g>
   <g>
   </g>
   <g>
   </g>
   <g>
   </g>
   <g>
   </g>
  </g>
 </g>
</svg>
